<svg xmlns="http://www.w3.org/2000/svg" viewBox="0 0 50 50"><g id="Lager_2" data-name="Lager 2"><g id="Lager_1-2" data-name="Lager 1"><rect width="50" height="50" rx="10" fill="#81cdf3"/><path d="M24.7,39.2a11.8,11.8,0,0,1-5.2-1,7.7,7.7,0,0,1-3.4-3A7.8,7.8,0,0,1,15,30.8h4.1a4.6,4.6,0,0,0,1.4,3.4,5.7,5.7,0,0,0,4.2,1.3A6.1,6.1,0,0,0,29.2,34a6.1,6.1,0,0,0,1.6-4.3V26.4h-.7A4.8,4.8,0,0,1,28,28.2a8.3,8.3,0,0,1-4.3.9A9.3,9.3,0,0,1,19.3,28,8,8,0,0,1,16,25a8.9,8.9,0,0,1-1.2-4.7v-.4a8.2,8.2,0,0,1,1.3-4.8,8.4,8.4,0,0,1,3.5-3.2,12.5,12.5,0,0,1,5.3-1.1A10.8,10.8,0,0,1,30.1,12a7.8,7.8,0,0,1,3.5,3.2A9,9,0,0,1,34.8,20v9.4a11.3,11.3,0,0,1-1.2,5.4A8.9,8.9,0,0,1,30,38.1,12.5,12.5,0,0,1,24.7,39.2Zm.1-13.4a7.1,7.1,0,0,0,3.1-.7,5.1,5.1,0,0,0,2.1-2,5.2,5.2,0,0,0,.8-2.9v-.3a5.1,5.1,0,0,0-1.7-4,6.3,6.3,0,0,0-4.3-1.4,6.5,6.5,0,0,0-4.3,1.4,5.1,5.1,0,0,0-1.6,4v.3a5.2,5.2,0,0,0,.7,2.9,5.1,5.1,0,0,0,2.1,2A7.4,7.4,0,0,0,24.8,25.8Z" fill="#1caae2"/></g></g></svg>